<svg width="400" height="400" viewBox="0 0 400 400" xmlns="http://www.w3.org/2000/svg">
  <!-- Sinar-sinar matahari -->
  <g stroke="#000" stroke-width="8" stroke-linecap="round">
    <!-- Sinar panjang -->
    <line x1="200" y1="20" x2="200" y2="80" />
    <line x1="200" y1="320" x2="200" y2="380" />
    <line x1="20" y1="200" x2="80" y2="200" />
    <line x1="320" y1="200" x2="380" y2="200" />
    
    <!-- Sinar diagonal -->
    <line x1="56.86" y1="56.86" x2="113.72" y2="113.72" />
    <line x1="343.14" y1="56.86" x2="286.28" y2="113.72" />
    <line x1="56.86" y1="343.14" x2="113.72" y2="286.28" />
    <line x1="343.14" y1="343.14" x2="286.28" y2="286.28" />
    
    <!-- Sinar medium -->
    <line x1="200" y1="30" x2="200" y2="70" />
    <line x1="200" y1="330" x2="200" y2="370" />
    <line x1="30" y1="200" x2="70" y2="200" />
    <line x1="330" y1="200" x2="370" y2="200" />
    
    <!-- Sinar pendek -->
    <g stroke-width="6">
      <line x1="85" y1="40" x2="105" y2="60" />
      <line x1="315" y1="40" x2="295" y2="60" />
      <line x1="40" y1="85" x2="60" y2="105" />
      <line x1="360" y1="85" x2="340" y2="105" />
      <line x1="85" y1="360" x2="105" y2="340" />
      <line x1="315" y1="360" x2="295" y2="340" />
      <line x1="40" y1="315" x2="60" y2="295" />
      <line x1="360" y1="315" x2="340" y2="295" />
    </g>
    
    <!-- Sinar tambahan -->
    <g stroke-width="5">
      <line x1="150" y1="25" x2="160" y2="45" />
      <line x1="250" y1="25" x2="240" y2="45" />
      <line x1="150" y1="375" x2="160" y2="355" />
      <line x1="250" y1="375" x2="240" y2="355" />
      <line x1="25" y1="150" x2="45" y2="160" />
      <line x1="25" y1="250" x2="45" y2="240" />
      <line x1="375" y1="150" x2="355" y2="160" />
      <line x1="375" y1="250" x2="355" y2="240" />
    </g>
  </g>
  
  <!-- Lingkaran utama -->
  <circle cx="200" cy="200" r="85" fill="#fff" stroke="#000" stroke-width="4"/>
  
  <!-- Kaligrafi Muhammadiyah -->
  <g fill="#000">
    <!-- Kaligrafi stylized yang menyerupai tulisan Arab Muhammadiyah -->
    <path d="M140 180 Q150 160 160 180 Q170 175 180 180 Q190 165 200 180 Q210 175 220 180 Q230 160 240 180 Q250 175 260 180 L255 190 Q245 195 235 190 Q225 200 215 190 Q205 195 195 190 Q185 200 175 190 Q165 195 155 190 Q145 200 135 190 Z"/>
    
    <!-- Bagian bawah kaligrafi -->
    <path d="M150 195 Q165 185 180 195 Q195 190 210 195 Q225 185 240 195 L235 205 Q220 210 205 205 Q190 215 175 205 Q160 210 145 205 Z"/>
    
    <!-- Detail kaligrafi -->
    <path d="M170 205 Q180 200 190 205 Q200 202 210 205 Q220 200 230 205 L225 215 Q210 218 195 215 Q180 220 165 215 Z"/>
    
    <!-- Titik-titik -->
    <circle cx="155" cy="175" r="2"/>
    <circle cx="245" cy="175" r="2"/>
    <circle cx="200" cy="220" r="2"/>
    <circle cx="180" cy="170" r="1.5"/>
    <circle cx="220" cy="170" r="1.5"/>
  </g>
  
  <!-- Figur manusia di bawah dengan tangan terangkat -->
  <g fill="#000">
    <!-- Figur tengah -->
    <g transform="translate(200, 290)">
      <!-- Kepala -->
      <circle cx="0" cy="-10" r="8"/>
      <!-- Badan -->
      <rect x="-8" y="-2" width="16" height="25" rx="3"/>
      <!-- Tangan terangkat -->
      <path d="M-8 5 Q-20 -5 -25 5 Q-20 10 -12 8 M8 5 Q20 -5 25 5 Q20 10 12 8"/>
      <!-- Kaki -->
      <rect x="-6" y="23" width="4" height="15" rx="2"/>
      <rect x="2" y="23" width="4" height="15" rx="2"/>
      <!-- Jubah -->
      <path d="M-15 15 Q-20 20 -18 30 L-12 35 L-8 25 M15 15 Q20 20 18 30 L12 35 L8 25"/>
    </g>
    
    <!-- Figur kiri -->
    <g transform="translate(150, 295)">
      <circle cx="0" cy="-8" r="6"/>
      <rect x="-6" y="-2" width="12" height="20" rx="2"/>
      <path d="M-6 3 Q-15 -3 -18 3 Q-15 8 -9 6 M6 3 Q15 -3 18 3 Q15 8 9 6"/>
      <rect x="-4" y="18" width="3" height="12" rx="1.5"/>
      <rect x="1" y="18" width="3" height="12" rx="1.5"/>
      <path d="M-12 12 Q-15 15 -14 22 L-9 25 L-6 20 M12 12 Q15 15 14 22 L9 25 L6 20"/>
    </g>
    
    <!-- Figur kanan -->
    <g transform="translate(250, 295)">
      <circle cx="0" cy="-8" r="6"/>
      <rect x="-6" y="-2" width="12" height="20" rx="2"/>
      <path d="M-6 3 Q-15 -3 -18 3 Q-15 8 -9 6 M6 3 Q15 -3 18 3 Q15 8 9 6"/>
      <rect x="-4" y="18" width="3" height="12" rx="1.5"/>
      <rect x="1" y="18" width="3" height="12" rx="1.5"/>
      <path d="M-12 12 Q-15 15 -14 22 L-9 25 L-6 20 M12 12 Q15 15 14 22 L9 25 L6 20"/>
    </g>
    
    <!-- Base/platform di bawah -->
    <rect x="120" y="330" width="160" height="40" rx="5"/>
    
    <!-- Detail base -->
    <rect x="130" y="340" width="140" height="20" rx="3" fill="#fff"/>
    <rect x="140" y="345" width="120" height="10" rx="2" fill="#000"/>
  </g>
</svg>